M48
; DRILL file {KiCad 9.0.5} date 2025-11-05T22:12:52+0530
; FORMAT={-:-/ absolute / metric / decimal}
; #@! TF.CreationDate,2025-11-05T22:12:52+05:30
; #@! TF.GenerationSoftware,Kicad,Pcbnew,9.0.5
; #@! TF.FileFunction,Plated,1,2,PTH
FMAT,2
METRIC
; #@! TA.AperFunction,Plated,PTH,ViaDrill
T1C0.254
; #@! TA.AperFunction,Plated,PTH,ViaDrill
T2C0.300
; #@! TA.AperFunction,Plated,PTH,ComponentDrill
T3C0.750
; #@! TA.AperFunction,Plated,PTH,ComponentDrill
T4C0.800
; #@! TA.AperFunction,Plated,PTH,ComponentDrill
T5C1.000
%
G90
G05
T1
X229.108Y-140.716
T2
X156.464Y-91.948
X156.515Y-174.244
X157.124Y-89.408
X159.004Y-176.276
X162.408Y-83.312
X162.408Y-86.004
X162.56Y-90.932
X162.56Y-93.472
X167.945Y-151.536
X168.656Y-143.764
X169.164Y-162.408
X169.418Y-169.215
X170.434Y-172.466
X171.043Y-156.464
X171.348Y-150.368
X172.72Y-119.38
X172.822Y-106.578
X172.822Y-125.781
X173.736Y-179.172
X175.26Y-146.812
X175.768Y-119.38
X176.075Y-145.441
X176.784Y-100.076
X176.784Y-139.7
X177.8Y-175.768
X179.832Y-101.6
X181.153Y-105.308
X183.388Y-119.38
X184.912Y-102.26
X184.912Y-155.448
X185.064Y-137.452
X185.42Y-119.38
X185.928Y-181.864
X187.706Y-92.304
X188.163Y-83.414
X188.519Y-126.949
X189.992Y-138.176
X191.059Y-83.414
X192.024Y-140.208
X192.176Y-126.949
X193.751Y-100.584
X195.077Y-118.364
X196.596Y-136.652
X197.104Y-146.304
X198.628Y-193.04
X199.136Y-195.072
X201.168Y-133.96
X201.676Y-191.364
X202.692Y-170.18
X203.708Y-153.924
X205.74Y-115.824
X205.74Y-120.904
X205.74Y-164.287
X205.74Y-165.913
X206.756Y-148.336
X206.756Y-152.4
X206.756Y-198.628
X209.296Y-136.144
X211.328Y-170.18
X213.36Y-94.488
X214.376Y-179.832
X214.884Y-133.96
X215.392Y-178.816
X216.916Y-94.996
X217.932Y-127.508
X218.948Y-154.076
X218.948Y-182.88
X219.763Y-127.508
X221.488Y-192.024
X225.552Y-85.852
X226.568Y-140.716
X228.6Y-85.852
X229.616Y-139.7
X232.156Y-172.212
X234.493Y-168.199
X234.696Y-171.196
X238.76Y-118.364
X239.979Y-185.674
X241.808Y-86.868
X241.859Y-191.821
X246.888Y-117.856
X246.888Y-192.024
X247.396Y-183.388
X247.396Y-185.522
X248.92Y-117.856
X249.936Y-83.82
X249.936Y-190.5
X255.524Y-87.376
X258.064Y-83.82
T3
X231.902Y-147.828
X233.172Y-147.828
X234.442Y-147.828
X238.252Y-148.336
X239.522Y-148.336
X240.792Y-148.336
X246.38Y-194.564
X247.65Y-194.564
X248.92Y-194.564
X254.508Y-195.072
X255.778Y-195.072
X257.048Y-195.072
T4
X163.068Y-197.612
X163.576Y-187.452
X163.576Y-195.072
X166.116Y-187.452
X166.116Y-195.072
X168.656Y-187.452
X168.656Y-195.072
X169.926Y-89.667
X169.926Y-97.287
X170.688Y-197.612
X171.196Y-187.452
X171.196Y-195.072
X171.45Y-104.648
X172.466Y-89.667
X172.466Y-97.287
X175.006Y-89.667
X175.006Y-97.287
X175.514Y-183.896
X176.784Y-172.212
X176.784Y-179.832
X177.546Y-89.667
X177.546Y-97.287
X178.308Y-169.164
X179.07Y-104.648
X179.324Y-172.212
X179.324Y-179.832
X179.578Y-114.041
X179.578Y-121.661
X179.832Y-150.368
X179.832Y-157.988
X180.086Y-132.329
X180.086Y-139.949
X180.594Y-124.709
X181.356Y-161.036
X181.61Y-142.748
X181.864Y-172.212
X181.864Y-179.832
X182.118Y-89.657
X182.118Y-97.277
X182.118Y-114.041
X182.118Y-121.661
X182.372Y-150.368
X182.372Y-157.988
X182.626Y-132.329
X182.626Y-139.949
X183.134Y-183.896
X184.404Y-172.212
X184.404Y-179.832
X184.658Y-89.657
X184.658Y-97.277
X184.658Y-114.041
X184.658Y-121.661
X184.912Y-150.368
X184.912Y-157.988
X185.166Y-132.329
X185.166Y-139.949
X185.928Y-169.164
X187.198Y-89.657
X187.198Y-97.277
X187.198Y-114.041
X187.198Y-121.661
X187.452Y-150.368
X187.452Y-157.988
X187.706Y-132.329
X187.706Y-139.949
X188.214Y-124.709
X188.976Y-161.036
X189.23Y-142.748
X189.484Y-165.608
X189.738Y-89.657
X189.738Y-97.277
X189.992Y-190.246
X189.992Y-197.866
X192.786Y-174.493
X192.786Y-182.113
X193.802Y-114.549
X193.802Y-122.169
X194.056Y-189.484
X194.056Y-197.104
X194.818Y-132.329
X194.818Y-139.949
X195.326Y-174.493
X195.326Y-182.113
X195.58Y-89.916
X195.58Y-97.536
X196.088Y-151.384
X196.088Y-159.004
X196.342Y-103.632
X196.342Y-114.549
X196.342Y-122.169
X196.596Y-142.748
X196.596Y-189.484
X196.596Y-197.104
X197.104Y-86.36
X197.104Y-165.608
X197.358Y-132.329
X197.358Y-139.949
X197.866Y-174.493
X197.866Y-182.113
X198.12Y-89.916
X198.12Y-97.536
X198.628Y-151.384
X198.628Y-159.004
X198.882Y-114.549
X198.882Y-122.169
X199.136Y-189.484
X199.136Y-197.104
X199.898Y-132.329
X199.898Y-139.949
X200.406Y-174.493
X200.406Y-182.113
X200.66Y-89.916
X200.66Y-97.536
X201.168Y-151.384
X201.168Y-159.004
X201.422Y-114.549
X201.422Y-122.169
X201.676Y-189.484
X201.676Y-197.104
X202.438Y-132.329
X202.438Y-139.949
X203.2Y-89.916
X203.2Y-97.536
X203.708Y-151.384
X203.708Y-159.004
X203.962Y-103.632
X204.216Y-142.748
X204.724Y-86.36
X208.026Y-132.329
X208.026Y-139.949
X208.534Y-114.549
X208.534Y-122.169
X208.788Y-89.916
X208.788Y-97.536
X209.042Y-174.493
X209.042Y-182.113
X210.566Y-111.76
X210.566Y-132.329
X210.566Y-139.949
X211.074Y-114.549
X211.074Y-122.169
X211.328Y-89.916
X211.328Y-97.536
X211.328Y-152.4
X211.328Y-160.02
X211.582Y-174.493
X211.582Y-182.113
X213.106Y-132.329
X213.106Y-139.949
X213.36Y-171.704
X213.614Y-114.549
X213.614Y-122.169
X213.868Y-89.916
X213.868Y-97.536
X213.868Y-152.4
X213.868Y-160.02
X214.122Y-174.493
X214.122Y-182.113
X214.884Y-189.738
X214.884Y-197.358
X215.646Y-132.329
X215.646Y-139.949
X216.154Y-114.549
X216.154Y-122.169
X216.408Y-89.916
X216.408Y-97.536
X216.408Y-152.4
X216.408Y-160.02
X216.662Y-174.493
X216.662Y-182.113
X218.186Y-111.76
X218.694Y-188.209
X218.694Y-195.829
X218.948Y-152.4
X218.948Y-160.02
X219.71Y-102.616
X220.98Y-171.704
X221.234Y-188.209
X221.234Y-195.829
X222.758Y-90.165
X222.758Y-97.785
X223.012Y-135.128
X223.012Y-142.748
X223.266Y-114.549
X223.266Y-122.169
X223.774Y-188.209
X223.774Y-195.829
X224.79Y-124.968
X225.298Y-90.165
X225.298Y-97.785
X225.552Y-111.76
X225.552Y-135.128
X225.552Y-142.748
X225.806Y-114.549
X225.806Y-122.169
X226.314Y-188.209
X226.314Y-195.829
X226.822Y-180.34
X227.33Y-102.616
X227.838Y-90.165
X227.838Y-97.785
X228.092Y-135.128
X228.092Y-142.748
X228.346Y-114.549
X228.346Y-122.169
X228.346Y-166.873
X228.346Y-174.493
X230.378Y-90.165
X230.378Y-97.785
X230.632Y-135.128
X230.632Y-142.748
X230.886Y-114.549
X230.886Y-122.169
X230.886Y-166.873
X230.886Y-174.493
X232.41Y-124.968
X233.172Y-111.76
X233.426Y-166.873
X233.426Y-174.493
X234.442Y-180.34
X235.966Y-166.873
X235.966Y-174.493
X236.469Y-135.89
X236.469Y-138.43
X236.469Y-140.97
X236.469Y-143.51
X236.982Y-114.549
X236.982Y-122.169
X237.998Y-90.165
X237.998Y-97.785
X239.522Y-114.549
X239.522Y-122.169
X240.03Y-181.605
X240.03Y-189.225
X240.538Y-90.165
X240.538Y-97.785
X242.062Y-114.549
X242.062Y-122.169
X242.57Y-181.605
X242.57Y-189.225
X243.078Y-90.165
X243.078Y-97.785
X244.089Y-135.89
X244.089Y-138.43
X244.089Y-140.97
X244.089Y-143.51
X244.602Y-114.549
X244.602Y-122.169
X245.11Y-181.605
X245.11Y-189.225
X245.618Y-90.165
X245.618Y-97.785
X247.65Y-181.605
X247.65Y-189.225
X250.19Y-117.856
X250.698Y-123.195
X250.698Y-130.815
X251.714Y-90.165
X251.714Y-97.785
X253.238Y-123.195
X253.238Y-130.815
X254.0Y-181.356
X254.0Y-183.896
X254.0Y-186.436
X254.0Y-188.976
X254.254Y-90.165
X254.254Y-97.785
X255.778Y-123.195
X255.778Y-130.815
X256.794Y-90.165
X256.794Y-97.785
X257.81Y-117.856
X258.318Y-123.195
X258.318Y-130.815
X259.334Y-90.165
X259.334Y-97.785
X261.62Y-181.356
X261.62Y-183.896
X261.62Y-186.436
X261.62Y-188.976
T5
X159.512Y-84.836
X159.512Y-87.376
X159.512Y-89.916
X159.512Y-129.032
X159.512Y-131.572
X160.02Y-163.068
X160.02Y-165.608
X160.045Y-179.598
X160.045Y-182.138
X239.268Y-102.108
X246.768Y-102.108
X251.072Y-103.124
X251.072Y-112.268
X258.572Y-103.124
X258.572Y-112.268
X259.209Y-153.69
X259.209Y-156.23
T5
G00X162.132Y-105.872
M15
G01X162.132Y-106.472
M16
G05
G00X163.108Y-172.42
M15
G01X163.108Y-173.02
M16
G05
G00X163.616Y-155.748
M15
G01X163.616Y-155.148
M16
G05
G00X164.292Y-111.76
M15
G01X164.892Y-111.76
M16
G05
G00X164.292Y-114.26
M15
G01X164.892Y-114.26
M16
G05
G00X164.292Y-116.76
M15
G01X164.892Y-116.76
M16
G05
G00X164.292Y-142.748
M15
G01X164.892Y-142.748
M16
G05
G00X164.292Y-145.248
M15
G01X164.892Y-145.248
M16
G05
G00X164.292Y-147.748
M15
G01X164.892Y-147.748
M16
G05
G00X164.632Y-105.872
M15
G01X164.632Y-106.472
M16
G05
G00X165.608Y-172.42
M15
G01X165.608Y-173.02
M16
G05
G00X165.648Y-121.62
M15
G01X165.648Y-122.22
M16
G05
G00X165.648Y-137.968
M15
G01X165.648Y-137.368
M16
G05
G00X166.116Y-155.748
M15
G01X166.116Y-155.148
M16
G05
G00X166.416Y-161.624
M15
G01X165.816Y-161.624
M16
G05
G00X166.416Y-164.124
M15
G01X165.816Y-164.124
M16
G05
G00X166.416Y-166.624
M15
G01X165.816Y-166.624
M16
G05
G00X167.132Y-105.872
M15
G01X167.132Y-106.472
M16
G05
G00X168.108Y-172.42
M15
G01X168.108Y-173.02
M16
G05
G00X168.148Y-121.62
M15
G01X168.148Y-122.22
M16
G05
G00X168.448Y-127.548
M15
G01X167.848Y-127.548
M16
G05
G00X168.448Y-130.048
M15
G01X167.848Y-130.048
M16
G05
G00X168.448Y-132.548
M15
G01X167.848Y-132.548
M16
G05
G00X168.148Y-137.968
M15
G01X168.148Y-137.368
M16
G05
G00X168.616Y-155.748
M15
G01X168.616Y-155.148
M16
G05
G00X170.648Y-121.62
M15
G01X170.648Y-122.22
M16
G05
G00X170.648Y-137.968
M15
G01X170.648Y-137.368
M16
G05
G00X172.004Y-111.84
M15
G01X171.404Y-111.84
M16
G05
G00X172.004Y-114.34
M15
G01X171.404Y-114.34
M16
G05
G00X172.004Y-116.84
M15
G01X171.404Y-116.84
M16
G05
G00X172.004Y-142.748
M15
G01X171.404Y-142.748
M16
G05
G00X172.004Y-145.248
M15
G01X171.404Y-145.248
M16
G05
G00X172.004Y-147.748
M15
G01X171.404Y-147.748
M16
G05
G00X248.724Y-138.724
M15
G01X249.325Y-138.724
M16
G05
G00X248.724Y-141.224
M15
G01X249.325Y-141.224
M16
G05
G00X248.724Y-143.724
M15
G01X249.325Y-143.724
M16
G05
G00X249.232Y-167.68
M15
G01X249.832Y-167.68
M16
G05
G00X249.232Y-170.18
M15
G01X249.832Y-170.18
M16
G05
G00X249.232Y-172.68
M15
G01X249.832Y-172.68
M16
G05
G00X250.081Y-162.86
M15
G01X250.081Y-162.26
M16
G05
G00X250.12Y-148.544
M15
G01X250.12Y-149.144
M16
G05
G00X252.28Y-152.948
M15
G01X252.88Y-152.948
M16
G05
G00X252.28Y-155.448
M15
G01X252.88Y-155.448
M16
G05
G00X252.28Y-157.948
M15
G01X252.88Y-157.948
M16
G05
G00X252.581Y-162.86
M15
G01X252.581Y-162.26
M16
G05
G00X252.62Y-148.544
M15
G01X252.62Y-149.144
M16
G05
G00X255.081Y-162.86
M15
G01X255.081Y-162.26
M16
G05
G00X255.12Y-148.544
M15
G01X255.12Y-149.144
M16
G05
G00X255.928Y-138.724
M15
G01X255.328Y-138.724
M16
G05
G00X255.928Y-141.224
M15
G01X255.328Y-141.224
M16
G05
G00X255.928Y-143.724
M15
G01X255.328Y-143.724
M16
G05
G00X255.928Y-167.68
M15
G01X255.328Y-167.68
M16
G05
G00X255.928Y-170.18
M15
G01X255.328Y-170.18
M16
G05
G00X255.928Y-172.68
M15
G01X255.328Y-172.68
M16
G05
M30
