%TF.GenerationSoftware,KiCad,Pcbnew,9.0.5*%
%TF.CreationDate,2025-11-05T22:12:35+05:30*%
%TF.ProjectId,final,66696e61-6c2e-46b6-9963-61645f706362,rev?*%
%TF.SameCoordinates,Original*%
%TF.FileFunction,Soldermask,Top*%
%TF.FilePolarity,Negative*%
%FSLAX46Y46*%
G04 Gerber Fmt 4.6, Leading zero omitted, Abs format (unit mm)*
G04 Created by KiCad (PCBNEW 9.0.5) date 2025-11-05 22:12:35*
%MOMM*%
%LPD*%
G01*
G04 APERTURE LIST*
G04 Aperture macros list*
%AMRoundRect*
0 Rectangle with rounded corners*
0 $1 Rounding radius*
0 $2 $3 $4 $5 $6 $7 $8 $9 X,Y pos of 4 corners*
0 Add a 4 corners polygon primitive as box body*
4,1,4,$2,$3,$4,$5,$6,$7,$8,$9,$2,$3,0*
0 Add four circle primitives for the rounded corners*
1,1,$1+$1,$2,$3*
1,1,$1+$1,$4,$5*
1,1,$1+$1,$6,$7*
1,1,$1+$1,$8,$9*
0 Add four rect primitives between the rounded corners*
20,1,$1+$1,$2,$3,$4,$5,0*
20,1,$1+$1,$4,$5,$6,$7,0*
20,1,$1+$1,$6,$7,$8,$9,0*
20,1,$1+$1,$8,$9,$2,$3,0*%
G04 Aperture macros list end*
%ADD10RoundRect,0.271166X-0.379634X-0.479634X0.379634X-0.479634X0.379634X0.479634X-0.379634X0.479634X0*%
%ADD11RoundRect,0.265875X-0.584925X-0.584925X0.584925X-0.584925X0.584925X0.584925X-0.584925X0.584925X0*%
%ADD12C,1.701600*%
%ADD13RoundRect,0.271166X0.379634X0.479634X-0.379634X0.479634X-0.379634X-0.479634X0.379634X-0.479634X0*%
%ADD14RoundRect,0.265875X0.584925X0.584925X-0.584925X0.584925X-0.584925X-0.584925X0.584925X-0.584925X0*%
%ADD15RoundRect,0.265875X0.584925X-0.584925X0.584925X0.584925X-0.584925X0.584925X-0.584925X-0.584925X0*%
%ADD16RoundRect,0.050800X-0.850000X-0.850000X0.850000X-0.850000X0.850000X0.850000X-0.850000X0.850000X0*%
%ADD17C,1.801600*%
%ADD18RoundRect,0.271166X-0.479634X0.379634X-0.479634X-0.379634X0.479634X-0.379634X0.479634X0.379634X0*%
%ADD19RoundRect,0.240240X-0.560560X-0.810560X0.560560X-0.810560X0.560560X0.810560X-0.560560X0.810560X0*%
%ADD20RoundRect,0.271166X0.479634X-0.379634X0.479634X0.379634X-0.479634X0.379634X-0.479634X-0.379634X0*%
%ADD21RoundRect,0.265875X-0.584925X0.584925X-0.584925X-0.584925X0.584925X-0.584925X0.584925X0.584925X0*%
%ADD22RoundRect,0.050800X0.525000X0.750000X-0.525000X0.750000X-0.525000X-0.750000X0.525000X-0.750000X0*%
%ADD23O,1.151600X1.601600*%
%ADD24RoundRect,0.240240X-0.810560X0.560560X-0.810560X-0.560560X0.810560X-0.560560X0.810560X0.560560X0*%
%ADD25C,2.101600*%
%ADD26RoundRect,0.240240X0.560560X0.810560X-0.560560X0.810560X-0.560560X-0.810560X0.560560X-0.810560X0*%
%ADD27RoundRect,0.240240X0.810560X-0.560560X0.810560X0.560560X-0.810560X0.560560X-0.810560X-0.560560X0*%
%ADD28RoundRect,0.050800X-0.525000X-0.750000X0.525000X-0.750000X0.525000X0.750000X-0.525000X0.750000X0*%
G04 APERTURE END LIST*
D10*
%TO.C,R59*%
X256540000Y-120396000D03*
X258540000Y-120396000D03*
%TD*%
D11*
%TO.C,U30*%
X254000000Y-181356000D03*
D12*
X254000000Y-183896000D03*
X254000000Y-186436000D03*
X254000000Y-188976000D03*
X261620000Y-188976000D03*
X261620000Y-186436000D03*
X261620000Y-183896000D03*
X261620000Y-181356000D03*
%TD*%
D10*
%TO.C,R20*%
X238776000Y-106172000D03*
X240776000Y-106172000D03*
%TD*%
%TO.C,R35*%
X197374000Y-125217000D03*
X199374000Y-125217000D03*
%TD*%
D13*
%TO.C,R70*%
X204184000Y-162052000D03*
X202184000Y-162052000D03*
%TD*%
D10*
%TO.C,R5*%
X170720000Y-86360000D03*
X172720000Y-86360000D03*
%TD*%
%TO.C,R42*%
X190500000Y-147320000D03*
X192500000Y-147320000D03*
%TD*%
%TO.C,R8*%
X195088000Y-100584000D03*
X197088000Y-100584000D03*
%TD*%
%TO.C,R91*%
X207264000Y-171704000D03*
X209264000Y-171704000D03*
%TD*%
%TO.C,R93*%
X189500000Y-187452000D03*
X191500000Y-187452000D03*
%TD*%
%TO.C,R31*%
X185436000Y-129540000D03*
X187436000Y-129540000D03*
%TD*%
D14*
%TO.C,D5*%
X188214000Y-124709000D03*
D12*
X180594000Y-124709000D03*
%TD*%
D10*
%TO.C,R73*%
X200168000Y-148844000D03*
X202168000Y-148844000D03*
%TD*%
D15*
%TO.C,U15*%
X223266000Y-122169000D03*
D12*
X225806000Y-122169000D03*
X228346000Y-122169000D03*
X230886000Y-122169000D03*
X230886000Y-114549000D03*
X228346000Y-114549000D03*
X225806000Y-114549000D03*
X223266000Y-114549000D03*
%TD*%
D15*
%TO.C,U10*%
X193802000Y-122169000D03*
D12*
X196342000Y-122169000D03*
X198882000Y-122169000D03*
X201422000Y-122169000D03*
X201422000Y-114549000D03*
X198882000Y-114549000D03*
X196342000Y-114549000D03*
X193802000Y-114549000D03*
%TD*%
D10*
%TO.C,R44*%
X207804000Y-144780000D03*
X209804000Y-144780000D03*
%TD*%
%TO.C,R77*%
X216916000Y-149860000D03*
X218916000Y-149860000D03*
%TD*%
%TO.C,R34*%
X199136000Y-111760000D03*
X201136000Y-111760000D03*
%TD*%
%TO.C,R19*%
X234728000Y-100076000D03*
X236728000Y-100076000D03*
%TD*%
%TO.C,R30*%
X180356000Y-129540000D03*
X182356000Y-129540000D03*
%TD*%
D15*
%TO.C,U8*%
X179578000Y-121661000D03*
D12*
X182118000Y-121661000D03*
X184658000Y-121661000D03*
X187198000Y-121661000D03*
X187198000Y-114041000D03*
X184658000Y-114041000D03*
X182118000Y-114041000D03*
X179578000Y-114041000D03*
%TD*%
D13*
%TO.C,R22*%
X245348000Y-86868000D03*
X243348000Y-86868000D03*
%TD*%
D10*
%TO.C,R108*%
X260620000Y-194564000D03*
X262620000Y-194564000D03*
%TD*%
D16*
%TO.C,J1*%
X159512000Y-84836000D03*
D17*
X159512000Y-87376000D03*
X159512000Y-89916000D03*
%TD*%
D18*
%TO.C,R80*%
X171704000Y-179848000D03*
X171704000Y-181848000D03*
%TD*%
D10*
%TO.C,R99*%
X205740000Y-189484000D03*
X207740000Y-189484000D03*
%TD*%
%TO.C,R49*%
X205232000Y-111760000D03*
X207232000Y-111760000D03*
%TD*%
D16*
%TO.C,J4*%
X160045000Y-179598000D03*
D17*
X160045000Y-182138000D03*
%TD*%
D13*
%TO.C,R103*%
X234172000Y-188468000D03*
X232172000Y-188468000D03*
%TD*%
D15*
%TO.C,U9*%
X180086000Y-139949000D03*
D12*
X182626000Y-139949000D03*
X185166000Y-139949000D03*
X187706000Y-139949000D03*
X187706000Y-132329000D03*
X185166000Y-132329000D03*
X182626000Y-132329000D03*
X180086000Y-132329000D03*
%TD*%
D10*
%TO.C,R3*%
X182896000Y-86868000D03*
X184896000Y-86868000D03*
%TD*%
%TO.C,R26*%
X176038000Y-124709000D03*
X178038000Y-124709000D03*
%TD*%
D13*
%TO.C,R61*%
X252952000Y-133096000D03*
X250952000Y-133096000D03*
%TD*%
D10*
%TO.C,R82*%
X162068000Y-184912000D03*
X164068000Y-184912000D03*
%TD*%
D14*
%TO.C,D6*%
X189230000Y-142748000D03*
D12*
X181610000Y-142748000D03*
%TD*%
D15*
%TO.C,U18*%
X223012000Y-142748000D03*
D12*
X225552000Y-142748000D03*
X228092000Y-142748000D03*
X230632000Y-142748000D03*
X230632000Y-135128000D03*
X228092000Y-135128000D03*
X225552000Y-135128000D03*
X223012000Y-135128000D03*
%TD*%
D11*
%TO.C,D14*%
X189484000Y-165608000D03*
D12*
X197104000Y-165608000D03*
%TD*%
D14*
%TO.C,D12*%
X257810000Y-117856000D03*
D12*
X250190000Y-117856000D03*
%TD*%
D10*
%TO.C,R52*%
X223012000Y-132588000D03*
X225012000Y-132588000D03*
%TD*%
%TO.C,R6*%
X174768000Y-86360000D03*
X176768000Y-86360000D03*
%TD*%
D13*
%TO.C,R74*%
X217408000Y-162560000D03*
X215408000Y-162560000D03*
%TD*%
%TO.C,R13*%
X192516000Y-105156000D03*
X190516000Y-105156000D03*
%TD*%
D10*
%TO.C,R55*%
X218440000Y-108712000D03*
X220440000Y-108712000D03*
%TD*%
D14*
%TO.C,D16*%
X170688000Y-197612000D03*
D12*
X163068000Y-197612000D03*
%TD*%
D10*
%TO.C,R43*%
X199406000Y-129540000D03*
X201406000Y-129540000D03*
%TD*%
%TO.C,R37*%
X176784000Y-161036000D03*
X178784000Y-161036000D03*
%TD*%
D19*
%TO.C,SW13*%
X163108000Y-172720000D03*
X165608000Y-172720000D03*
X168108000Y-172720000D03*
%TD*%
D14*
%TO.C,D20*%
X234442000Y-180340000D03*
D12*
X226822000Y-180340000D03*
%TD*%
D14*
%TO.C,U19*%
X244089000Y-143510000D03*
D12*
X244089000Y-140970000D03*
X244089000Y-138430000D03*
X244089000Y-135890000D03*
X236469000Y-135890000D03*
X236469000Y-138430000D03*
X236469000Y-140970000D03*
X236469000Y-143510000D03*
%TD*%
D13*
%TO.C,R71*%
X200120000Y-162052000D03*
X198120000Y-162052000D03*
%TD*%
%TO.C,R45*%
X209772000Y-142240000D03*
X207772000Y-142240000D03*
%TD*%
D20*
%TO.C,R67*%
X244348000Y-148320000D03*
X244348000Y-146320000D03*
%TD*%
D21*
%TO.C,U17*%
X258318000Y-123195000D03*
D12*
X255778000Y-123195000D03*
X253238000Y-123195000D03*
X250698000Y-123195000D03*
X250698000Y-130815000D03*
X253238000Y-130815000D03*
X255778000Y-130815000D03*
X258318000Y-130815000D03*
%TD*%
D13*
%TO.C,R100*%
X230616000Y-177292000D03*
X228616000Y-177292000D03*
%TD*%
D10*
%TO.C,R68*%
X173752000Y-169164000D03*
X175752000Y-169164000D03*
%TD*%
%TO.C,R12*%
X190500000Y-102616000D03*
X192500000Y-102616000D03*
%TD*%
D20*
%TO.C,R97*%
X211312000Y-191500000D03*
X211312000Y-189500000D03*
%TD*%
D22*
%TO.C,Q2*%
X234442000Y-147828000D03*
D23*
X233172000Y-147828000D03*
X231902000Y-147828000D03*
%TD*%
D24*
%TO.C,SW2*%
X168148000Y-127548000D03*
X168148000Y-130048000D03*
X168148000Y-132548000D03*
%TD*%
D10*
%TO.C,R46*%
X208820000Y-129540000D03*
X210820000Y-129540000D03*
%TD*%
%TO.C,R38*%
X192548000Y-142748000D03*
X194548000Y-142748000D03*
%TD*%
%TO.C,R17*%
X222520000Y-87376000D03*
X224520000Y-87376000D03*
%TD*%
D25*
%TO.C,C2*%
X251072000Y-112268000D03*
X258572000Y-112268000D03*
%TD*%
D10*
%TO.C,R96*%
X226060000Y-185420000D03*
X228060000Y-185420000D03*
%TD*%
D26*
%TO.C,SW7*%
X170648000Y-137668000D03*
X168148000Y-137668000D03*
X165648000Y-137668000D03*
%TD*%
D10*
%TO.C,R94*%
X199660000Y-186944000D03*
X201660000Y-186944000D03*
%TD*%
D15*
%TO.C,U13*%
X208026000Y-139949000D03*
D12*
X210566000Y-139949000D03*
X213106000Y-139949000D03*
X215646000Y-139949000D03*
X215646000Y-132329000D03*
X213106000Y-132329000D03*
X210566000Y-132329000D03*
X208026000Y-132329000D03*
%TD*%
D15*
%TO.C,U3*%
X195580000Y-97536000D03*
D12*
X198120000Y-97536000D03*
X200660000Y-97536000D03*
X203200000Y-97536000D03*
X203200000Y-89916000D03*
X200660000Y-89916000D03*
X198120000Y-89916000D03*
X195580000Y-89916000D03*
%TD*%
D10*
%TO.C,R89*%
X204724000Y-184912000D03*
X206724000Y-184912000D03*
%TD*%
D13*
%TO.C,R25*%
X254492000Y-107188000D03*
X252492000Y-107188000D03*
%TD*%
D10*
%TO.C,R81*%
X157988000Y-197104000D03*
X159988000Y-197104000D03*
%TD*%
%TO.C,R40*%
X183912000Y-147828000D03*
X185912000Y-147828000D03*
%TD*%
%TO.C,R54*%
X232188000Y-128524000D03*
X234188000Y-128524000D03*
%TD*%
D14*
%TO.C,D1*%
X179070000Y-104648000D03*
D12*
X171450000Y-104648000D03*
%TD*%
D22*
%TO.C,Q3*%
X248920000Y-194564000D03*
D23*
X247650000Y-194564000D03*
X246380000Y-194564000D03*
%TD*%
D15*
%TO.C,U21*%
X196088000Y-159004000D03*
D12*
X198628000Y-159004000D03*
X201168000Y-159004000D03*
X203708000Y-159004000D03*
X203708000Y-151384000D03*
X201168000Y-151384000D03*
X198628000Y-151384000D03*
X196088000Y-151384000D03*
%TD*%
D10*
%TO.C,R21*%
X238268000Y-86868000D03*
X240268000Y-86868000D03*
%TD*%
D13*
%TO.C,R105*%
X239236000Y-193040000D03*
X237236000Y-193040000D03*
%TD*%
D10*
%TO.C,R85*%
X175260000Y-188468000D03*
X177260000Y-188468000D03*
%TD*%
D24*
%TO.C,SW4*%
X171704000Y-111840000D03*
X171704000Y-114340000D03*
X171704000Y-116840000D03*
%TD*%
D15*
%TO.C,U28*%
X228346000Y-174493000D03*
D12*
X230886000Y-174493000D03*
X233426000Y-174493000D03*
X235966000Y-174493000D03*
X235966000Y-166873000D03*
X233426000Y-166873000D03*
X230886000Y-166873000D03*
X228346000Y-166873000D03*
%TD*%
D15*
%TO.C,U7*%
X251714000Y-97785000D03*
D12*
X254254000Y-97785000D03*
X256794000Y-97785000D03*
X259334000Y-97785000D03*
X259334000Y-90165000D03*
X256794000Y-90165000D03*
X254254000Y-90165000D03*
X251714000Y-90165000D03*
%TD*%
D15*
%TO.C,U12*%
X194818000Y-139949000D03*
D12*
X197358000Y-139949000D03*
X199898000Y-139949000D03*
X202438000Y-139949000D03*
X202438000Y-132329000D03*
X199898000Y-132329000D03*
X197358000Y-132329000D03*
X194818000Y-132329000D03*
%TD*%
D10*
%TO.C,R92*%
X184404000Y-197612000D03*
X186404000Y-197612000D03*
%TD*%
D15*
%TO.C,U5*%
X222758000Y-97785000D03*
D12*
X225298000Y-97785000D03*
X227838000Y-97785000D03*
X230378000Y-97785000D03*
X230378000Y-90165000D03*
X227838000Y-90165000D03*
X225298000Y-90165000D03*
X222758000Y-90165000D03*
%TD*%
D10*
%TO.C,R75*%
X210820000Y-165100000D03*
X212820000Y-165100000D03*
%TD*%
D24*
%TO.C,SW6*%
X171704000Y-142748000D03*
X171704000Y-145248000D03*
X171704000Y-147748000D03*
%TD*%
D13*
%TO.C,R79*%
X183356000Y-100584000D03*
X181356000Y-100584000D03*
%TD*%
D19*
%TO.C,SW1*%
X162132000Y-106172000D03*
X164632000Y-106172000D03*
X167132000Y-106172000D03*
%TD*%
D10*
%TO.C,R27*%
X177308000Y-111252000D03*
X179308000Y-111252000D03*
%TD*%
%TO.C,R106*%
X240030000Y-179065000D03*
X242030000Y-179065000D03*
%TD*%
D27*
%TO.C,SW5*%
X164592000Y-116760000D03*
X164592000Y-114260000D03*
X164592000Y-111760000D03*
%TD*%
D10*
%TO.C,R14*%
X210820000Y-86360000D03*
X212820000Y-86360000D03*
%TD*%
D14*
%TO.C,D13*%
X185928000Y-169164000D03*
D12*
X178308000Y-169164000D03*
%TD*%
D15*
%TO.C,U27*%
X218694000Y-195829000D03*
D12*
X221234000Y-195829000D03*
X223774000Y-195829000D03*
X226314000Y-195829000D03*
X226314000Y-188209000D03*
X223774000Y-188209000D03*
X221234000Y-188209000D03*
X218694000Y-188209000D03*
%TD*%
D10*
%TO.C,R107*%
X245126000Y-179065000D03*
X247126000Y-179065000D03*
%TD*%
D28*
%TO.C,Q1*%
X238252000Y-148336000D03*
D23*
X239522000Y-148336000D03*
X240792000Y-148336000D03*
%TD*%
D13*
%TO.C,R36*%
X195310000Y-125217000D03*
X193310000Y-125217000D03*
%TD*%
D10*
%TO.C,R102*%
X234188000Y-164084000D03*
X236188000Y-164084000D03*
%TD*%
%TO.C,R7*%
X169704000Y-101600000D03*
X171704000Y-101600000D03*
%TD*%
D13*
%TO.C,R63*%
X229076000Y-145796000D03*
X227076000Y-145796000D03*
%TD*%
D10*
%TO.C,R62*%
X227600000Y-132588000D03*
X229600000Y-132588000D03*
%TD*%
D13*
%TO.C,R78*%
X212836000Y-162560000D03*
X210836000Y-162560000D03*
%TD*%
%TO.C,R2*%
X187420000Y-100584000D03*
X185420000Y-100584000D03*
%TD*%
D21*
%TO.C,U20*%
X184404000Y-172212000D03*
D12*
X181864000Y-172212000D03*
X179324000Y-172212000D03*
X176784000Y-172212000D03*
X176784000Y-179832000D03*
X179324000Y-179832000D03*
X181864000Y-179832000D03*
X184404000Y-179832000D03*
%TD*%
D16*
%TO.C,J5*%
X259209500Y-153690000D03*
D17*
X259209500Y-156230000D03*
%TD*%
D14*
%TO.C,D7*%
X188976000Y-161036000D03*
D12*
X181356000Y-161036000D03*
%TD*%
D11*
%TO.C,D3*%
X197104000Y-86360000D03*
D12*
X204724000Y-86360000D03*
%TD*%
D13*
%TO.C,R16*%
X226044000Y-100076000D03*
X224044000Y-100076000D03*
%TD*%
%TO.C,R15*%
X216884000Y-86360000D03*
X214884000Y-86360000D03*
%TD*%
D10*
%TO.C,R101*%
X228092000Y-164084000D03*
X230092000Y-164084000D03*
%TD*%
D13*
%TO.C,R32*%
X191500000Y-109728000D03*
X189500000Y-109728000D03*
%TD*%
D19*
%TO.C,SW20*%
X250120500Y-148844000D03*
X252620500Y-148844000D03*
X255120500Y-148844000D03*
%TD*%
%TO.C,SW3*%
X165648000Y-121920000D03*
X168148000Y-121920000D03*
X170648000Y-121920000D03*
%TD*%
D14*
%TO.C,D17*%
X220980000Y-171704000D03*
D12*
X213360000Y-171704000D03*
%TD*%
D13*
%TO.C,R18*%
X230124000Y-87376000D03*
X228124000Y-87376000D03*
%TD*%
D15*
%TO.C,U26*%
X194056000Y-197104000D03*
D12*
X196596000Y-197104000D03*
X199136000Y-197104000D03*
X201676000Y-197104000D03*
X201676000Y-189484000D03*
X199136000Y-189484000D03*
X196596000Y-189484000D03*
X194056000Y-189484000D03*
%TD*%
D24*
%TO.C,SW16*%
X255628500Y-167680000D03*
X255628500Y-170180000D03*
X255628500Y-172680000D03*
%TD*%
D10*
%TO.C,R51*%
X220472000Y-111760000D03*
X222472000Y-111760000D03*
%TD*%
D13*
%TO.C,R86*%
X195040000Y-184404000D03*
X193040000Y-184404000D03*
%TD*%
D18*
%TO.C,R65*%
X233680000Y-139192000D03*
X233680000Y-141192000D03*
%TD*%
D15*
%TO.C,U22*%
X211328000Y-160020000D03*
D12*
X213868000Y-160020000D03*
X216408000Y-160020000D03*
X218948000Y-160020000D03*
X218948000Y-152400000D03*
X216408000Y-152400000D03*
X213868000Y-152400000D03*
X211328000Y-152400000D03*
%TD*%
D21*
%TO.C,D18*%
X189992000Y-190246000D03*
D12*
X189992000Y-197866000D03*
%TD*%
D26*
%TO.C,SW19*%
X255080500Y-162560000D03*
X252580500Y-162560000D03*
X250080500Y-162560000D03*
%TD*%
D13*
%TO.C,R66*%
X235696000Y-132080000D03*
X233696000Y-132080000D03*
%TD*%
D24*
%TO.C,SW18*%
X255628500Y-138724000D03*
X255628500Y-141224000D03*
X255628500Y-143724000D03*
%TD*%
D13*
%TO.C,R11*%
X212836000Y-100584000D03*
X210836000Y-100584000D03*
%TD*%
D10*
%TO.C,R83*%
X168164000Y-184912000D03*
X170164000Y-184912000D03*
%TD*%
%TO.C,R9*%
X192548000Y-83820000D03*
X194548000Y-83820000D03*
%TD*%
D13*
%TO.C,R60*%
X257524000Y-133096000D03*
X255524000Y-133096000D03*
%TD*%
D10*
%TO.C,R58*%
X242332000Y-112268000D03*
X244332000Y-112268000D03*
%TD*%
D15*
%TO.C,U23*%
X163576000Y-195072000D03*
D12*
X166116000Y-195072000D03*
X168656000Y-195072000D03*
X171196000Y-195072000D03*
X171196000Y-187452000D03*
X168656000Y-187452000D03*
X166116000Y-187452000D03*
X163576000Y-187452000D03*
%TD*%
D10*
%TO.C,R4*%
X187992000Y-86868000D03*
X189992000Y-86868000D03*
%TD*%
D11*
%TO.C,D15*%
X175514000Y-183896000D03*
D12*
X183134000Y-183896000D03*
%TD*%
D10*
%TO.C,R104*%
X232172000Y-192532000D03*
X234172000Y-192532000D03*
%TD*%
%TO.C,R47*%
X213376000Y-129540000D03*
X215376000Y-129540000D03*
%TD*%
%TO.C,R41*%
X195088000Y-129540000D03*
X197088000Y-129540000D03*
%TD*%
D21*
%TO.C,U2*%
X177546000Y-89667000D03*
D12*
X175006000Y-89667000D03*
X172466000Y-89667000D03*
X169926000Y-89667000D03*
X169926000Y-97287000D03*
X172466000Y-97287000D03*
X175006000Y-97287000D03*
X177546000Y-97287000D03*
%TD*%
D11*
%TO.C,D2*%
X196342000Y-103632000D03*
D12*
X203962000Y-103632000D03*
%TD*%
D27*
%TO.C,SW22*%
X249024500Y-143724000D03*
X249024500Y-141224000D03*
X249024500Y-138724000D03*
%TD*%
D25*
%TO.C,C3*%
X258572000Y-103124000D03*
X251072000Y-103124000D03*
%TD*%
D10*
%TO.C,R29*%
X176784000Y-142748000D03*
X178784000Y-142748000D03*
%TD*%
D15*
%TO.C,U14*%
X208534000Y-122169000D03*
D12*
X211074000Y-122169000D03*
X213614000Y-122169000D03*
X216154000Y-122169000D03*
X216154000Y-114549000D03*
X213614000Y-114549000D03*
X211074000Y-114549000D03*
X208534000Y-114549000D03*
%TD*%
D20*
%TO.C,R109*%
X250952000Y-187960000D03*
X250952000Y-185960000D03*
%TD*%
D13*
%TO.C,R56*%
X238728000Y-124968000D03*
X236728000Y-124968000D03*
%TD*%
D27*
%TO.C,SW8*%
X164592000Y-147748000D03*
X164592000Y-145248000D03*
X164592000Y-142748000D03*
%TD*%
D15*
%TO.C,U4*%
X208788000Y-97536000D03*
D12*
X211328000Y-97536000D03*
X213868000Y-97536000D03*
X216408000Y-97536000D03*
X216408000Y-89916000D03*
X213868000Y-89916000D03*
X211328000Y-89916000D03*
X208788000Y-89916000D03*
%TD*%
D15*
%TO.C,U29*%
X240030000Y-189225000D03*
D12*
X242570000Y-189225000D03*
X245110000Y-189225000D03*
X247650000Y-189225000D03*
X247650000Y-181605000D03*
X245110000Y-181605000D03*
X242570000Y-181605000D03*
X240030000Y-181605000D03*
%TD*%
D14*
%TO.C,D11*%
X218186000Y-111760000D03*
D12*
X210566000Y-111760000D03*
%TD*%
D16*
%TO.C,J2*%
X159512000Y-129032000D03*
D17*
X159512000Y-131572000D03*
%TD*%
D10*
%TO.C,R95*%
X209296000Y-197104000D03*
X211296000Y-197104000D03*
%TD*%
%TO.C,R28*%
X182880000Y-111252000D03*
X184880000Y-111252000D03*
%TD*%
D16*
%TO.C,J3*%
X160020000Y-163068000D03*
D17*
X160020000Y-165608000D03*
%TD*%
D25*
%TO.C,C1*%
X239268000Y-102108000D03*
X246768000Y-102108000D03*
%TD*%
D10*
%TO.C,R10*%
X206756000Y-100584000D03*
X208756000Y-100584000D03*
%TD*%
D28*
%TO.C,Q4*%
X254508000Y-195072000D03*
D23*
X255778000Y-195072000D03*
X257048000Y-195072000D03*
%TD*%
D10*
%TO.C,R23*%
X251984000Y-87376000D03*
X253984000Y-87376000D03*
%TD*%
%TO.C,R50*%
X220472000Y-124968000D03*
X222472000Y-124968000D03*
%TD*%
%TO.C,R57*%
X237776000Y-112268000D03*
X239776000Y-112268000D03*
%TD*%
%TO.C,R87*%
X192532000Y-171704000D03*
X194532000Y-171704000D03*
%TD*%
D27*
%TO.C,SW21*%
X249532500Y-172680000D03*
X249532500Y-170180000D03*
X249532500Y-167680000D03*
%TD*%
D10*
%TO.C,R53*%
X236728000Y-127508000D03*
X238728000Y-127508000D03*
%TD*%
%TO.C,R72*%
X195580000Y-148844000D03*
X197580000Y-148844000D03*
%TD*%
D15*
%TO.C,U16*%
X236982000Y-122169000D03*
D12*
X239522000Y-122169000D03*
X242062000Y-122169000D03*
X244602000Y-122169000D03*
X244602000Y-114549000D03*
X242062000Y-114549000D03*
X239522000Y-114549000D03*
X236982000Y-114549000D03*
%TD*%
D26*
%TO.C,SW12*%
X168616000Y-155448000D03*
X166116000Y-155448000D03*
X163616000Y-155448000D03*
%TD*%
D14*
%TO.C,D4*%
X227330000Y-102616000D03*
D12*
X219710000Y-102616000D03*
%TD*%
D13*
%TO.C,R24*%
X259064000Y-87376000D03*
X257064000Y-87376000D03*
%TD*%
D10*
%TO.C,R98*%
X221504000Y-184912000D03*
X223504000Y-184912000D03*
%TD*%
%TO.C,R88*%
X198644000Y-171704000D03*
X200644000Y-171704000D03*
%TD*%
D21*
%TO.C,D19*%
X214884000Y-189738000D03*
D12*
X214884000Y-197358000D03*
%TD*%
D15*
%TO.C,U6*%
X237998000Y-97785000D03*
D12*
X240538000Y-97785000D03*
X243078000Y-97785000D03*
X245618000Y-97785000D03*
X245618000Y-90165000D03*
X243078000Y-90165000D03*
X240538000Y-90165000D03*
X237998000Y-90165000D03*
%TD*%
D15*
%TO.C,U25*%
X209042000Y-182113000D03*
D12*
X211582000Y-182113000D03*
X214122000Y-182113000D03*
X216662000Y-182113000D03*
X216662000Y-174493000D03*
X214122000Y-174493000D03*
X211582000Y-174493000D03*
X209042000Y-174493000D03*
%TD*%
D14*
%TO.C,D9*%
X233172000Y-111760000D03*
D12*
X225552000Y-111760000D03*
%TD*%
D13*
%TO.C,R90*%
X211296000Y-184912000D03*
X209296000Y-184912000D03*
%TD*%
D10*
%TO.C,R76*%
X210836000Y-149352000D03*
X212836000Y-149352000D03*
%TD*%
D14*
%TO.C,D10*%
X232410000Y-124968000D03*
D12*
X224790000Y-124968000D03*
%TD*%
D14*
%TO.C,D8*%
X204216000Y-142748000D03*
D12*
X196596000Y-142748000D03*
%TD*%
D24*
%TO.C,SW10*%
X166116000Y-161624000D03*
X166116000Y-164124000D03*
X166116000Y-166624000D03*
%TD*%
D10*
%TO.C,R69*%
X184912000Y-166624000D03*
X186912000Y-166624000D03*
%TD*%
D27*
%TO.C,SW17*%
X252580500Y-157948000D03*
X252580500Y-155448000D03*
X252580500Y-152948000D03*
%TD*%
D13*
%TO.C,R48*%
X224504000Y-145796000D03*
X222504000Y-145796000D03*
%TD*%
D10*
%TO.C,R39*%
X179832000Y-147828000D03*
X181832000Y-147828000D03*
%TD*%
D15*
%TO.C,U1*%
X182118000Y-97277000D03*
D12*
X184658000Y-97277000D03*
X187198000Y-97277000D03*
X189738000Y-97277000D03*
X189738000Y-89657000D03*
X187198000Y-89657000D03*
X184658000Y-89657000D03*
X182118000Y-89657000D03*
%TD*%
D10*
%TO.C,R64*%
X215916000Y-144780000D03*
X217916000Y-144780000D03*
%TD*%
%TO.C,R1*%
X181388000Y-103632000D03*
X183388000Y-103632000D03*
%TD*%
%TO.C,R84*%
X185928000Y-184404000D03*
X187928000Y-184404000D03*
%TD*%
D15*
%TO.C,U11*%
X179832000Y-157988000D03*
D12*
X182372000Y-157988000D03*
X184912000Y-157988000D03*
X187452000Y-157988000D03*
X187452000Y-150368000D03*
X184912000Y-150368000D03*
X182372000Y-150368000D03*
X179832000Y-150368000D03*
%TD*%
D10*
%TO.C,R110*%
X254524000Y-176784000D03*
X256524000Y-176784000D03*
%TD*%
%TO.C,R33*%
X193548000Y-110744000D03*
X195548000Y-110744000D03*
%TD*%
D15*
%TO.C,U24*%
X192786000Y-182113000D03*
D12*
X195326000Y-182113000D03*
X197866000Y-182113000D03*
X200406000Y-182113000D03*
X200406000Y-174493000D03*
X197866000Y-174493000D03*
X195326000Y-174493000D03*
X192786000Y-174493000D03*
%TD*%
M02*
